# xmcd
#
# Track frame offsets:
#	150
#	15437
#	33547
#	47345
#	58290
#	71089
#	86861
#	101301
#	119157
#	134634
#	149951
#	166688
#	185440
#	199944
#	210098
#	222520
#	235994
#	260719
#	272382
#	282379
#	296325
#	311136
#	320912
#
# Disc length: 4488 seconds
#
# Revision: 0
# Processed by: cddbd v1.5.2PL0 Copyright (c) Steve Scherf et al.
# Submitted via: EasyCDDAExtractor 16.0.8.2
#
DISCID=74118617
DTITLE=Καμπίτσης Δημήτρης - Το δημοτικό τραγούδι είναι εδώ 2.2 Καλαμ.-συρ.-καγ
DTITLE=κέλια
DYEAR=1900
DGENRE=Παραδοσιακή
TTITLE0=Μιά βλάχα, μιά παλιόβλαχα
TTITLE1=Μιά χήρα πούλαγε κρασί
TTITLE2=Πάρε Μαριώ την ρόκα σου
TTITLE3=Διαμάντι δαχτυλίδι
TTITLE4=Φοράς καινούργια φορεσιά (Σταυρούλα)
TTITLE5=Μαντζουράνα
TTITLE6=Μπήκαν τα γίδια στο μαντρί
TTITLE7=Μαλάμω
TTITLE8=Νά 'χα νεράντζια νά 'ριχνα
TTITLE9=Όλα τα πουλάκια
TTITLE10=Αυτά τα μάτια τα γλυκά
TTITLE11=Όλες οι παπαρούνες
TTITLE12=Πάνω σε ψιλή ραχούλα
TTITLE13=Σουλιμιώτισσα
TTITLE14=Τσοπανάκος
TTITLE15=Αριστείδης
TTITLE16=Σκάρνατα βλάχα μ'-Κάτω στο ρέμα-Μέσ' στ' αμπέλι 
TTITLE17=Στην κεντημένη σου ποδιά
TTITLE18=Τα ματάκια σου τα μαύρα
TTITLE19=Κάτω στην Αλεξάνδρεια
TTITLE20=Σιγαλά βρέχει ο ουρανός
TTITLE21=Στη βρύση στην κρυόβρυση
TTITLE22=Καραγκούνα
EXTD=
EXTT0=
EXTT1=
EXTT2=
EXTT3=
EXTT4=
EXTT5=
EXTT6=
EXTT7=
EXTT8=
EXTT9=
EXTT10=
EXTT11=
EXTT12=
EXTT13=
EXTT14=
EXTT15=
EXTT16=
EXTT17=
EXTT18=
EXTT19=
EXTT20=
EXTT21=
EXTT22=
PLAYORDER=
